PathFileType	4	(X/Y/Z)	/tmp/tmpvaf8quct/results/MarkerData/markers_smpl.trc
DataRate	CameraRate	NumFrames	NumMarkers	Units	OrigDataRate	OrigDataStartFrame	OrigNumFrames
120	120	9	44	m	120	298	597
Frame#	Time	C7			CLAV			LANK			LBHD			LBWT			LELB			LFHD			LFIN			LFRM			LFWT			LHEE			LKNE			LMT5			LPAT			LSHN			LSHO			LTHI			LTOE			LUPA			LWLA			LWRB			RANK			RBAC			RBHD			RBWT			RELB			RFHD			RFIN			RFRM			RFWT			RHEE			RKNE			RMT5			RPAT			RSHN			RSHO			RTHI			RTOE			RUPA			RWRA			RWRB			STRN			T10			T8		
		X1	Y1	Z1	X2	Y2	Z2	X3	Y3	Z3	X4	Y4	Z4	X5	Y5	Z5	X6	Y6	Z6	X7	Y7	Z7	X8	Y8	Z8	X9	Y9	Z9	X10	Y10	Z10	X11	Y11	Z11	X12	Y12	Z12	X13	Y13	Z13	X14	Y14	Z14	X15	Y15	Z15	X16	Y16	Z16	X17	Y17	Z17	X18	Y18	Z18	X19	Y19	Z19	X20	Y20	Z20	X21	Y21	Z21	X22	Y22	Z22	X23	Y23	Z23	X24	Y24	Z24	X25	Y25	Z25	X26	Y26	Z26	X27	Y27	Z27	X28	Y28	Z28	X29	Y29	Z29	X30	Y30	Z30	X31	Y31	Z31	X32	Y32	Z32	X33	Y33	Z33	X34	Y34	Z34	X35	Y35	Z35	X36	Y36	Z36	X37	Y37	Z37	X38	Y38	Z38	X39	Y39	Z39	X40	Y40	Z40	X41	Y41	Z41	X42	Y42	Z42	X43	Y43	Z43	X44	Y44	Z44

299	2.48333	-1.35867	1.49148	-0.536662	-1.27114	1.40116	-0.485527	-1.65726	0.0795189	-0.72611	-1.20161	1.6019	-0.559372	-1.5926	1.05624	-0.632207	-1.29956	1.08087	-0.726168	-1.10015	1.61749	-0.490106	-1.12284	0.751042	-0.788096	-1.23359	0.997542	-0.781825	-1.38804	0.995211	-0.624688	-1.70844	0.0327835	-0.705772	-1.53446	0.536365	-0.71726	-1.51033	0.0384024	-0.69062	-1.47851	0.478375	-0.643598	-1.58136	0.388957	-0.746262	-1.38725	1.46012	-0.346798	-1.47916	0.772956	-0.733524	-1.45011	0.0323818	-0.62943	-1.24603	1.20941	-0.744246	-1.15866	0.860525	-0.747441	-1.20592	0.846916	-0.772739	-1.74547	0.176278	-0.485107	-1.44402	1.45459	-0.501345	-1.29419	1.6206	-0.486496	-1.62449	1.05831	-0.546566	-1.60833	1.17111	-0.402969	-1.20241	1.63394	-0.396565	-1.63791	0.823421	-0.279192	-1.63586	1.02388	-0.31492	-1.48163	1.00666	-0.419218	-1.78034	0.151323	-0.540318	-1.50608	0.528972	-0.388981	-1.66488	0.0761696	-0.405104	-1.41195	0.493227	-0.408705	-1.61589	0.367886	-0.40735	-1.22736	1.43138	-0.658763	-1.54843	0.695727	-0.398606	-1.57261	0.0363256	-0.412606	-1.49868	1.37442	-0.333589	-1.58354	0.932822	-0.300716	-1.64008	0.933822	-0.317575	-1.30327	1.2421	-0.48539	-1.49588	1.25029	-0.572392	-1.45669	1.36537	-0.56761
300	2.49167	-1.34881	1.49021	-0.534801	-1.2618	1.39979	-0.482826	-1.65697	0.0800576	-0.725896	-1.19158	1.60036	-0.556272	-1.58377	1.05574	-0.630696	-1.28543	1.07897	-0.72403	-1.09049	1.61584	-0.486438	-1.10411	0.75074	-0.781354	-1.2175	0.99615	-0.778123	-1.37933	0.993983	-0.623087	-1.70843	0.0336434	-0.705516	-1.5312	0.536253	-0.716623	-1.51029	0.0379561	-0.690574	-1.47578	0.477614	-0.643106	-1.57922	0.389188	-0.745757	-1.37913	1.45913	-0.345171	-1.47294	0.772123	-0.732387	-1.44999	0.0317338	-0.629488	-1.23231	1.20802	-0.740955	-1.14186	0.860003	-0.741879	-1.18846	0.845803	-0.768065	-1.72441	0.170147	-0.481216	-1.43442	1.45347	-0.500256	-1.28453	1.61907	-0.483893	-1.61566	1.05784	-0.545034	-1.60061	1.17102	-0.403969	-1.1932	1.63223	-0.393429	-1.63421	0.823718	-0.27997	-1.63026	1.02404	-0.316101	-1.47298	1.00616	-0.417558	-1.75866	0.143458	-0.536028	-1.49324	0.528921	-0.386735	-1.64048	0.0737521	-0.400093	-1.39847	0.494694	-0.406324	-1.59948	0.365162	-0.404405	-1.21605	1.4299	-0.655145	-1.53741	0.695512	-0.396507	-1.54691	0.0369774	-0.407403	-1.49094	1.37374	-0.333143	-1.57879	0.932637	-0.3012	-1.63512	0.934001	-0.318736	-1.29409	1.24083	-0.482935	-1.4862	1.24935	-0.571126	-1.44672	1.36427	-0.566446
301	2.5	-1.33887	1.48891	-0.532733	-1.25253	1.39828	-0.479922	-1.65657	0.0808342	-0.725669	-1.18157	1.59882	-0.552954	-1.57468	1.05479	-0.629312	-1.27098	1.07714	-0.721857	-1.08094	1.61431	-0.482458	-1.08589	0.750135	-0.774416	-1.20124	0.994774	-0.774331	-1.37023	0.992833	-0.621137	-1.70834	0.0347172	-0.705359	-1.52665	0.535964	-0.715681	-1.51019	0.0377566	-0.690517	-1.47204	0.476647	-0.642127	-1.57611	0.389391	-0.745063	-1.37105	1.45796	-0.343351	-1.46546	0.771066	-0.730819	-1.44983	0.0312357	-0.629519	-1.21835	1.20669	-0.737485	-1.12504	0.859424	-0.736263	-1.17104	0.844719	-0.76322	-1.703	0.163572	-0.476779	-1.42481	1.45242	-0.498985	-1.27501	1.61746	-0.481171	-1.60673	1.05694	-0.543693	-1.59298	1.17078	-0.40478	-1.18421	1.63058	-0.390104	-1.63011	0.82384	-0.280755	-1.62459	1.02411	-0.317023	-1.46438	1.00566	-0.415799	-1.73645	0.135127	-0.531247	-1.48051	0.528627	-0.38437	-1.61575	0.0710219	-0.394652	-1.38508	0.495955	-0.403705	-1.58296	0.362161	-0.401127	-1.20471	1.42837	-0.651207	-1.52644	0.695044	-0.39441	-1.52087	0.0376933	-0.401688	-1.48326	1.37295	-0.33251	-1.57385	0.932439	-0.301316	-1.62993	0.934104	-0.319574	-1.28527	1.23945	-0.480321	-1.47677	1.24847	-0.569974	-1.43682	1.36329	-0.565241
302	2.50833	-1.32884	1.48754	-0.530504	-1.24326	1.39671	-0.476727	-1.65614	0.0815517	-0.725443	-1.17182	1.59728	-0.549402	-1.56559	1.05387	-0.627836	-1.25701	1.07495	-0.719217	-1.07147	1.61276	-0.478533	-1.06531	0.750973	-0.767191	-1.1851	0.993268	-0.770028	-1.3612	0.991571	-0.619116	-1.70816	0.0357639	-0.705151	-1.52261	0.53572	-0.714693	-1.51001	0.0374569	-0.690162	-1.46825	0.475716	-0.641537	-1.57338	0.38967	-0.744269	-1.36296	1.45686	-0.341399	-1.45894	0.770114	-0.729513	-1.4497	0.0306836	-0.629084	-1.20484	1.2051	-0.73372	-1.10758	0.859304	-0.729906	-1.15278	0.843621	-0.757623	-1.68086	0.156744	-0.47166	-1.41515	1.45141	-0.497581	-1.26559	1.61591	-0.478039	-1.59783	1.0561	-0.542291	-1.58516	1.17046	-0.405316	-1.1751	1.62899	-0.386566	-1.62575	0.823819	-0.281313	-1.61881	1.02405	-0.317831	-1.45591	1.00514	-0.41393	-1.71339	0.126707	-0.525885	-1.4678	0.52834	-0.382101	-1.59084	0.0677972	-0.388509	-1.37171	0.497311	-0.401097	-1.56613	0.359103	-0.39761	-1.19342	1.42665	-0.647116	-1.51554	0.694556	-0.392329	-1.49486	0.0376893	-0.395148	-1.47555	1.37223	-0.331682	-1.56884	0.932164	-0.301291	-1.62463	0.934031	-0.320338	-1.27653	1.23799	-0.477254	-1.46724	1.2476	-0.568835	-1.4268	1.3623	-0.563915
303	2.51667	-1.31867	1.48619	-0.528179	-1.23374	1.39524	-0.473427	-1.65562	0.0823554	-0.725282	-1.162	1.59582	-0.545665	-1.5561	1.05311	-0.626282	-1.2429	1.07262	-0.716316	-1.06188	1.61129	-0.474522	-1.0449	0.751729	-0.759646	-1.16895	0.991612	-0.765511	-1.35184	0.99014	-0.616955	-1.70796	0.036936	-0.705079	-1.51858	0.535565	-0.713639	-1.50983	0.0371434	-0.689809	-1.4648	0.474878	-0.640656	-1.57058	0.390011	-0.743478	-1.35478	1.45583	-0.339388	-1.45202	0.769122	-0.728044	-1.4496	0.0299544	-0.628661	-1.19136	1.20336	-0.729852	-1.09044	0.858898	-0.723347	-1.13473	0.842317	-0.75194	-1.65758	0.149798	-0.466245	-1.4053	1.45028	-0.496108	-1.256	1.61439	-0.474645	-1.58856	1.05541	-0.540819	-1.57737	1.1703	-0.405669	-1.16579	1.6274	-0.382825	-1.62157	0.823987	-0.281735	-1.61306	1.02409	-0.318606	-1.44716	1.00445	-0.41197	-1.68916	0.118268	-0.520224	-1.45517	0.528115	-0.37955	-1.56527	0.0645274	-0.381835	-1.3584	0.498829	-0.398226	-1.54884	0.355908	-0.393795	-1.18209	1.42484	-0.643115	-1.50468	0.694176	-0.390132	-1.46843	0.0372303	-0.387898	-1.46776	1.37158	-0.330815	-1.56386	0.931982	-0.301287	-1.61935	0.93405	-0.321151	-1.26727	1.23659	-0.474059	-1.45724	1.24658	-0.567341	-1.4165	1.36116	-0.562358
304	2.525	-1.30833	1.48481	-0.525629	-1.2241	1.39369	-0.469952	-1.65511	0.0833398	-0.725042	-1.15192	1.59431	-0.541812	-1.54662	1.05229	-0.624602	-1.22836	1.07056	-0.713216	-1.05212	1.60982	-0.470272	-1.02696	0.751236	-0.752292	-1.15299	0.990024	-0.761007	-1.34245	0.988837	-0.614917	-1.70777	0.0382692	-0.704931	-1.51436	0.535442	-0.712441	-1.50964	0.0370451	-0.689576	-1.46114	0.474098	-0.639616	-1.56761	0.390427	-0.742538	-1.34698	1.45484	-0.337376	-1.44502	0.768167	-0.726609	-1.44946	0.0293923	-0.628406	-1.17773	1.20184	-0.725878	-1.07413	0.858066	-0.717193	-1.11777	0.84099	-0.746467	-1.6365	0.144163	-0.460161	-1.39533	1.44915	-0.494612	-1.24625	1.61282	-0.471244	-1.57922	1.05452	-0.539167	-1.56957	1.16995	-0.406149	-1.15639	1.62584	-0.379007	-1.61718	0.824086	-0.282198	-1.60716	1.02403	-0.319357	-1.4382	1.0036	-0.410024	-1.6672	0.111083	-0.51376	-1.44251	0.527895	-0.376683	-1.54147	0.0626374	-0.374968	-1.34524	0.500018	-0.395111	-1.53251	0.353446	-0.389524	-1.17078	1.42308	-0.63893	-1.49361	0.693766	-0.387676	-1.44374	0.0385851	-0.380925	-1.46036	1.37094	-0.330303	-1.5586	0.931748	-0.301101	-1.61374	0.934004	-0.321847	-1.25801	1.23515	-0.470826	-1.44731	1.24551	-0.565543	-1.40616	1.36004	-0.560564
305	2.53333	-1.2976	1.48338	-0.522849	-1.21402	1.39204	-0.466386	-1.65452	0.0846754	-0.724759	-1.14121	1.59283	-0.537761	-1.53728	1.05174	-0.622809	-1.21419	1.06848	-0.709836	-1.04182	1.60825	-0.465666	-1.00847	0.751303	-0.744799	-1.13727	0.988634	-0.75642	-1.33326	0.987689	-0.612702	-1.70745	0.0399498	-0.704701	-1.50993	0.535607	-0.711315	-1.50932	0.0373726	-0.689412	-1.45725	0.473605	-0.638678	-1.56448	0.391127	-0.741659	-1.33918	1.45379	-0.335224	-1.43803	0.767528	-0.725107	-1.44918	0.0291907	-0.628255	-1.1648	1.20041	-0.722133	-1.05699	0.858052	-0.711013	-1.10013	0.840247	-0.740564	-1.61403	0.138202	-0.453587	-1.38499	1.448	-0.49291	-1.23595	1.61128	-0.467762	-1.57004	1.05391	-0.537398	-1.56166	1.16953	-0.406754	-1.14658	1.62415	-0.374968	-1.61287	0.82421	-0.282809	-1.60123	1.02398	-0.320192	-1.42945	1.00292	-0.407936	-1.64377	0.103595	-0.506838	-1.4298	0.527862	-0.373864	-1.51635	0.060587	-0.367676	-1.33201	0.501585	-0.392233	-1.51547	0.350898	-0.385029	-1.15974	1.42133	-0.635093	-1.48255	0.693588	-0.38517	-1.41783	0.0398459	-0.373514	-1.45296	1.37021	-0.329919	-1.55333	0.931488	-0.300955	-1.60809	0.933995	-0.322557	-1.24848	1.23358	-0.467503	-1.43724	1.24457	-0.56342	-1.39559	1.35896	-0.558356
306	2.54167	-1.28691	1.48194	-0.520014	-1.2041	1.39027	-0.462808	-1.65427	0.0861639	-0.724439	-1.1301	1.59111	-0.533429	-1.52822	1.05113	-0.620718	-1.20068	1.0661	-0.706595	-1.03128	1.60616	-0.460478	-0.988812	0.75221	-0.736606	-1.12162	0.987338	-0.751734	-1.32434	0.986461	-0.610366	-1.70751	0.0418298	-0.704339	-1.50538	0.535781	-0.710195	-1.50938	0.0376645	-0.689557	-1.45327	0.473078	-0.637762	-1.56138	0.391865	-0.740817	-1.33076	1.45251	-0.332846	-1.43106	0.766911	-0.72335	-1.44914	0.0289631	-0.62857	-1.15217	1.19874	-0.718318	-1.03928	0.858662	-0.704416	-1.08169	0.839927	-0.734443	-1.59113	0.132244	-0.446756	-1.37468	1.4469	-0.490961	-1.22535	1.60955	-0.464185	-1.56101	1.0533	-0.535291	-1.5534	1.16915	-0.407183	-1.13671	1.62198	-0.37061	-1.60861	0.824447	-0.283219	-1.59504	1.02398	-0.320913	-1.42071	1.00227	-0.405656	-1.61981	0.0960786	-0.499627	-1.4174	0.527808	-0.370924	-1.49098	0.0588025	-0.359986	-1.31913	0.503177	-0.389233	-1.49847	0.34832	-0.380363	-1.14867	1.41938	-0.631222	-1.47171	0.693393	-0.38245	-1.3918	0.0414013	-0.365669	-1.44493	1.36933	-0.32895	-1.54793	0.931215	-0.300762	-1.60232	0.934035	-0.323196	-1.23921	1.23199	-0.464236	-1.42736	1.24365	-0.561361	-1.38514	1.35792	-0.556213
307	2.55	-1.27622	1.48048	-0.517169	-1.19417	1.38855	-0.459137	-1.65427	0.0879158	-0.724208	-1.11913	1.58934	-0.529051	-1.51887	1.05046	-0.618694	-1.18681	1.06373	-0.703426	-1.02089	1.60417	-0.455281	-0.969802	0.752702	-0.728434	-1.10579	0.985965	-0.747052	-1.31512	0.985308	-0.60798	-1.70788	0.0440638	-0.704026	-1.50078	0.536056	-0.708963	-1.50977	0.0378588	-0.690031	-1.44928	0.472606	-0.636766	-1.55836	0.392803	-0.73991	-1.32211	1.45115	-0.330346	-1.42381	0.766284	-0.721534	-1.44933	0.0284808	-0.629341	-1.13893	1.19699	-0.714224	-1.02213	0.858817	-0.697907	-1.06372	0.839344	-0.728582	-1.56816	0.126566	-0.439634	-1.36433	1.44573	-0.488915	-1.2149	1.6078	-0.460573	-1.55175	1.05264	-0.533282	-1.54499	1.16873	-0.407445	-1.12699	1.61994	-0.366255	-1.60393	0.824628	-0.283444	-1.58868	1.02397	-0.321474	-1.41178	1.00166	-0.403399	-1.59573	0.0889227	-0.492129	-1.40523	0.527748	-0.36788	-1.46591	0.0572274	-0.351911	-1.3065	0.504714	-0.386001	-1.48163	0.34587	-0.375531	-1.13719	1.41737	-0.626945	-1.46091	0.693209	-0.379727	-1.3662	0.0430213	-0.35738	-1.43664	1.36836	-0.32773	-1.54236	0.931024	-0.300266	-1.59634	0.934042	-0.323643	-1.22982	1.2304	-0.460826	-1.41728	1.24273	-0.559356	-1.37456	1.35681	-0.554106
